<svg xmlns="http://www.w3.org/2000/svg" viewBox="0 0 4420.39 698.72"><defs><style>.cls-1{fill:#307a74;}</style></defs><title>资源 1</title><g id="图层_2" data-name="图层 2"><g id="Layer_1" data-name="Layer 1"><path class="cls-1" d="M349.36,0C156.41,0,0,156.41,0,349.36S156.41,698.72,349.36,698.72,698.72,542.3,698.72,349.36,542.3,0,349.36,0ZM557.88,404.92c0,82.47-86.28,201.52-187.37,201.52v0c-.22,0-.43,0-.65,0l-.19-67.17c66.27-10.18,110.4-81.8,110.4-81.8H218.64s44.13,71.63,110.4,81.8l-.19,67.17c-.22,0-.43,0-.65,0v0c-101.09,0-187.37-119-187.37-201.52V349.36H276.15l73.21,72.81,73.21-72.81H557.88Zm-42.17-80.51c0-33.28-7.36-69.06-14.72-94.13L349.36,384.88,197.73,230.28C190.36,255.36,183,291.13,183,324.41l-42.17-.53c-.36-41,22.62-134.83,36.91-175.11L349.36,325.46,521,148.77c14.3,40.28,37.28,134.15,36.91,175.11Z"/><polygon class="cls-1" points="1218.38 386.46 956.15 386.46 956.15 365.44 1060.98 365.44 1060.98 129.78 1082.01 129.78 1082.01 365.44 1218.38 365.44 1218.38 386.46"/><polygon class="cls-1" points="1101.75 249.33 1162.84 214.77 1173.3 233.04 1112.21 267.61 1101.75 249.33"/><polygon class="cls-1" points="1279.71 179.72 1251.68 151.68 1266.28 136.79 1294.31 165.12 1279.71 179.72"/><rect class="cls-1" x="1262.67" y="240.2" width="20.65" height="39.65" transform="translate(188.99 976.3) rotate(-45)"/><polygon class="cls-1" points="1294.31 353.76 1266.28 381.5 1251.68 366.9 1279.71 338.87 1294.31 353.76"/><path class="cls-1" d="M1506.6,173V152H1361.76v-21.9h-21V159l-26,34.46L1331.4,206l.58-.58v71.84h-22.49v21H1332v76.8h135.2v16.64h21V375.07h18.4V354h-18.4V298.27h18.4v-21h-18.4V199.57H1336.07L1356.22,173ZM1353,220.6h114.18v56.65H1353Zm0,77.68h114.18V354H1353Z"/><polygon class="cls-1" points="1414.33 267.61 1392.43 245.71 1407.61 230.82 1429.51 253.01 1414.33 267.61"/><polygon class="cls-1" points="1414.33 343.83 1392.43 321.93 1407.61 307.04 1429.51 329.23 1414.33 343.83"/><path class="cls-1" d="M1613.78,293.89V163.66h-35.63V359.6l-12.85,30.66L1546,382.37l11.1-26.87V142.63h77.68V388.21h-42v-21h21V293.89Zm32.12-67.16h48.77v28.91l-33,115.05-20.15-5.55,32.12-111.55v-5.84H1645.9Zm132.28-57.82H1663.13l-18.69-22.78L1660.79,133l12.26,14.89h105.12Zm-125,17.23h80v23.65l14.31,34.75,31.83-27.74,13.73,15.77L1756,265l40.3,97.82L1777,370.69,1733.21,265V387h-47.31V366h26.28V207.17h-59Z"/><path class="cls-1" d="M1952.81,391.43V332.73l-108.34,52-8.76-19,117.1-56.36V285.13h-84.1V331h-21V264.11h105.12V241.62h-120.6v-21h120.6V200.16h21V220.6h120.6v21h-120.6v22.49H2079V331h-21V285.13h-84.1v24.24l116.81,56.36-8.76,19-108-52v58.69Zm12.26-225.14h-90.23l-20.73,32.12L1836,186.72l22.49-34.46V130.08h21v15.18h85.56Zm43.51-36.21v15.18h85.56v21h-90.23l-21,32.12-17.81-11.68,22.49-34.46V130.08Z"/><path class="cls-1" d="M2428.81,365.73H2449V295.35h-29.2v-21H2449V202.2h-32.71v-21H2449V129.78h21v51.39h26.28v21H2470v63.08c5.55-5,11.1-9.64,16.64-14.31l13.73,16.35L2470,293v93.74h-41.17Zm87,22.78-18.4-9.93,16.94-31V138h158.86v72.71H2535.4V352.59ZM2652.2,189.65V159H2535.4v30.66Zm26.28,80h-54V300.9h47.31v85.56H2556.13V300.9h47.31V269.66h-54.32v-21h54.32V224.4h21v24.24h54Zm-101.33,52.27v43.51h73.59V321.93Z"/><path class="cls-1" d="M2756.75,391.72V275.5l-28.91,71-19.27-7.88L2751.79,232h-41.17V211h46.14v-42h-42.93v-21H2795l14-14.31,15.19,14.6-19.86,20.73h-26.57v42h46.14v21h-39.42l36.21,70.67-19,9.64-23.94-47V391.72Zm213.17-71.54h-34.17V392h-21V320.18h-87v-21h87V129.78h21V299.15h34.17Zm-123.86-63.32,29-26.65,14,15.19-28.68,26.95Zm1.17-61,29-26.95,14,15.19L2861.54,211Z"/><path class="cls-1" d="M3015.77,364.85h24.82V294.48h-35v-21h35V201.62h-39.42v-21h39.42V129.2h21v51.39h31.54v21h-31.54v64.53c7.3-5.55,14.31-11.1,21.61-16.35l12.56,16.94-34.17,25.4v93.74h-45.85Zm86.73,6.72,61-49.93-52.85-42.93,13.14-16.06,56.36,45.55,49.93-40.88V248.63H3102.79v-21h68.92V185.27h-68.92v-21h68.92v-35h21v35h68.62v21h-68.62v42.34h58.4v49.64l-54.31,44.39,61.91,49.93-13.14,16.35-65.41-52.85-64.53,52.85Z"/><path class="cls-1" d="M3400.65,130.37v33.29h153.6v21H3395.4l-23.07,31.83h152.72V386.75h-51.39v-21H3504V237.54H3370V391.72h-21V248.92l-35.33,48.77-16.94-12,73-101h-77.09v-21h87V130.37Zm-3.38,215.56,57.48-32.33L3465.47,332l-57.4,32Zm0-59.05,57.48-32.33,10.72,18.37-57.4,32Zm333.55-68.14,57.48-32.33L3799,204.77l-57.4,32Z"/><path class="cls-1" d="M3588.43,392.6V137.67h83.52v73.59L3649.17,248h22.78V358.72H3626.1v-21h24.82V269.07h-26V247.76l26-42v-47h-41.47V392.6Zm233.9-97.24,13.73,15.77-39.71,34.46,17.81,20.73h28.33v21h-37.67l-91.69-107.17v86.14h37.67v21h-58.69V137.67h142.5V279h-94.9l42.93,50.52ZM3813.57,258V158.69H3713.12V258Z"/><path class="cls-1" d="M3994.38,144.71l-87.6,121.48-16.94-12.26,87.9-121.48ZM4099.33,371l-191.09,15.75V362l105.71-146.59,16.94,12L3930.14,365.77,4088.82,350Zm-43.62-238.59,87.9,121.48-16.94,12.26-87.6-121.48Z"/><path class="cls-1" d="M4065.9,286.13l59.61,105-18.14,10.39-59.32-105Z"/><path class="cls-1" d="M4178.31,194h187.76v21H4178.31Zm3.21-53.44h238.87V386.46h-59.57v-21h38.55V161.61H4181.52ZM4356.73,246.3v108H4187.65v-108Zm-148.05,21v66h127v-66Z"/><path class="cls-1" d="M1019.08,462.51l-13.9,8.24q-3.9-6.77-7.43-8.83a17.34,17.34,0,0,0-9.49-2.35,17.53,17.53,0,0,0-11.84,4,12.54,12.54,0,0,0-4.71,10q0,8.31,12.36,13.39l11.33,4.63q13.83,5.59,20.23,13.64T1022,525q0,15.67-10.44,25.89t-26.11,10.3q-14.78,0-24.42-8.75T949.2,527.82L966.56,524q1.18,10,4.12,13.83,5.3,7.36,15.45,7.36a17.92,17.92,0,0,0,13.31-5.37,18.57,18.57,0,0,0,5.3-13.61,19.1,19.1,0,0,0-.92-6.07,15.42,15.42,0,0,0-2.87-5.07,23,23,0,0,0-5-4.34,48.63,48.63,0,0,0-7.36-3.86l-11-4.56q-23.32-9.86-23.32-28.83a27.35,27.35,0,0,1,9.78-21.4q9.78-8.68,24.35-8.68Q1008,443.39,1019.08,462.51Z"/><path class="cls-1" d="M1039.52,434.93h16.55v58.55q8.83-7.94,19.49-7.94,12.14,0,19.42,7.87,6.18,6.84,6.18,21.84v43.91h-16.55V516.79q0-8.61-3.05-12.47t-9.82-3.86q-8.68,0-12.21,5.37t-3.46,18.68v34.64h-16.55Z"/><path class="cls-1" d="M1174.93,487.52h16.62v71.64h-16.62v-7.5q-10.22,9.56-22,9.56a31.68,31.68,0,0,1-24.57-10.74q-9.64-11-9.64-27.36,0-16.11,9.64-26.85a31.06,31.06,0,0,1,24.12-10.74q12.5,0,22.43,10.3Zm-39.28,35.6q0,10.3,5.52,16.77a18.07,18.07,0,0,0,14.27,6.55q9.19,0,14.86-6.33,5.66-6.55,5.66-16.62t-5.66-16.62a18.73,18.73,0,0,0-14.71-6.4,18.3,18.3,0,0,0-14.27,6.47A23.86,23.86,0,0,0,1135.65,523.12Z"/><path class="cls-1" d="M1212.44,487.52h16.62v6.62q8.68-8.61,19.56-8.61,12.5,0,19.49,7.87,6,6.69,6,21.84v43.91h-16.62v-40q0-10.59-2.94-14.64t-10.44-4.12q-8.24,0-11.69,5.44t-3.38,18.76v34.57h-16.62Z"/><path class="cls-1" d="M1364.32,557.47q0,5.07-.33,8.94a62.24,62.24,0,0,1-.92,6.8,30.31,30.31,0,0,1-6.91,13.9q-9.71,11.18-26.7,11.18-14.34,0-23.61-7.72-9.56-7.94-11-22h16.62a18.81,18.81,0,0,0,3.16,8.16q5.15,6.69,15,6.69,18.17,0,18.17-22.29v-10q-9.86,10.08-22.73,10.08-14.64,0-24-10.59t-9.41-26.85q0-15.67,8.75-26.63,9.41-11.62,24.86-11.62a28.88,28.88,0,0,1,22.51,10.08v-8.09h16.55Zm-15.89-34q0-10.44-5.59-16.7a18.48,18.48,0,0,0-14.49-6.4q-9.42,0-14.86,7-4.93,6.25-4.93,16.18t4.93,16q5.37,6.84,14.86,6.84t15-6.91Q1348.44,533.27,1348.44,523.48Z"/><path class="cls-1" d="M1385.21,434.93h16.55v58.55q8.83-7.94,19.49-7.94,12.14,0,19.42,7.87,6.18,6.84,6.18,21.84v43.91H1430.3V516.79q0-8.61-3.05-12.47t-9.82-3.86q-8.68,0-12.21,5.37t-3.46,18.68v34.64h-16.55Z"/><path class="cls-1" d="M1520.62,487.52h16.62v71.64h-16.62v-7.5q-10.22,9.56-22,9.56a31.68,31.68,0,0,1-24.57-10.74q-9.64-11-9.64-27.36,0-16.11,9.64-26.85a31.06,31.06,0,0,1,24.12-10.74q12.5,0,22.43,10.3Zm-39.28,35.6q0,10.3,5.52,16.77a18.07,18.07,0,0,0,14.27,6.55q9.19,0,14.86-6.33,5.66-6.55,5.66-16.62T1516,506.86a18.73,18.73,0,0,0-14.71-6.4,18.3,18.3,0,0,0-14.27,6.47A23.86,23.86,0,0,0,1481.34,523.12Z"/><path class="cls-1" d="M1555.63,457.73a10.8,10.8,0,0,1,10.74-10.67,10.42,10.42,0,0,1,7.65,3.16,10.18,10.18,0,0,1,3.16,7.58,10.42,10.42,0,0,1-3.16,7.65,10.18,10.18,0,0,1-7.58,3.16,10.8,10.8,0,0,1-10.81-10.89Zm19,29.79v71.64h-16.55V487.52Z"/><path class="cls-1" d="M1641.32,559.16l23.9-122.09,39,88.26,40.38-88.26,21.48,122.09h-17.58l-11-68.55-33.61,73.77-32.66-73.85L1659,559.16Z"/><path class="cls-1" d="M1852.19,527.24h-51.34q.66,8.83,5.74,14a17.49,17.49,0,0,0,13,5.15,16.93,16.93,0,0,0,10.22-2.94q4-2.94,9-10.89l14,7.8a55.63,55.63,0,0,1-6.84,9.45,36.37,36.37,0,0,1-7.72,6.47,31,31,0,0,1-8.9,3.71,43.37,43.37,0,0,1-10.37,1.18q-16,0-25.74-10.3t-9.71-27.51q0-17,9.41-27.51t25.15-10.37q15.81,0,25,10.08t9.12,27.73Zm-17-13.53q-3.46-13.24-16.7-13.24a17.15,17.15,0,0,0-5.66.92A16.23,16.23,0,0,0,1808,504a16.79,16.79,0,0,0-3.71,4.16,19.3,19.3,0,0,0-2.35,5.52Z"/><path class="cls-1" d="M1888.67,503v56.19h-16.55V503h-7.06V487.52h7.06V461.26h16.55v26.26h12.87V503Z"/><path class="cls-1" d="M1912.79,487.52h16.55v6.4a31.61,31.61,0,0,1,8.09-6.55,18.56,18.56,0,0,1,8.53-1.84q6.55,0,13.68,4.27L1952.07,505a15.81,15.81,0,0,0-9.19-3.38q-13.53,0-13.53,20.45v37.14h-16.55Z"/><path class="cls-1" d="M1964.43,522.82a35.6,35.6,0,0,1,11.11-26.4,39.18,39.18,0,0,1,54.28.07,36.47,36.47,0,0,1,11,26.92q0,16.11-11.11,27t-27.43,10.81q-16.11,0-27-11T1964.43,522.82Zm16.92.29q0,10.74,5.74,17t15.52,6.33q9.71,0,15.52-6.25t5.81-16.7q0-10.44-5.81-16.7t-15.52-6.33q-9.49,0-15.37,6.33T1981.34,523.12Z"/><path class="cls-1" d="M2111.16,434.93h16.62V559.16h-16.62v-7.5q-9.78,9.56-22.14,9.56a31.52,31.52,0,0,1-24.42-10.74q-9.64-11-9.64-27.36,0-16,9.64-26.77a30.74,30.74,0,0,1,24.05-10.81q12.58,0,22.51,10.3Zm-39.28,88.19q0,10.3,5.52,16.77a18.07,18.07,0,0,0,14.27,6.55q9.19,0,14.86-6.33,5.66-6.55,5.66-16.62t-5.66-16.62a18.73,18.73,0,0,0-14.71-6.4,18.3,18.3,0,0,0-14.27,6.47A23.86,23.86,0,0,0,2071.89,523.12Z"/><path class="cls-1" d="M2201.48,487.52h16.62v71.64h-16.62v-7.5q-10.22,9.56-22,9.56a31.68,31.68,0,0,1-24.57-10.74q-9.64-11-9.64-27.36,0-16.11,9.64-26.85A31.06,31.06,0,0,1,2179,485.53q12.5,0,22.43,10.3Zm-39.28,35.6q0,10.3,5.52,16.77a18.07,18.07,0,0,0,14.27,6.55q9.19,0,14.86-6.33,5.66-6.55,5.66-16.62t-5.66-16.62a18.73,18.73,0,0,0-14.71-6.4,18.3,18.3,0,0,0-14.27,6.47A23.86,23.86,0,0,0,2162.21,523.12Z"/><path class="cls-1" d="M2256.06,503v56.19h-16.55V503h-7.06V487.52h7.06V461.26h16.55v26.26h12.87V503Z"/><path class="cls-1" d="M2334.32,487.52h16.62v71.64h-16.62v-7.5q-10.22,9.56-22,9.56a31.68,31.68,0,0,1-24.57-10.74q-9.64-11-9.64-27.36,0-16.11,9.64-26.85a31.06,31.06,0,0,1,24.12-10.74q12.5,0,22.43,10.3ZM2295,523.12q0,10.3,5.52,16.77a18.06,18.06,0,0,0,14.27,6.55q9.19,0,14.86-6.33,5.66-6.55,5.66-16.62t-5.66-16.62a18.73,18.73,0,0,0-14.71-6.4,18.3,18.3,0,0,0-14.27,6.47A23.86,23.86,0,0,0,2295,523.12Z"/><path class="cls-1" d="M2452.81,461.7v97.46h-17.14V461.7h-26.11V445.59h69.28V461.7Z"/><path class="cls-1" d="M2550,527.24H2498.7q.66,8.83,5.74,14a17.49,17.49,0,0,0,13,5.15,16.93,16.93,0,0,0,10.22-2.94q4-2.94,9-10.89l14,7.8a55.67,55.67,0,0,1-6.84,9.45,36.38,36.38,0,0,1-7.72,6.47,31,31,0,0,1-8.9,3.71,43.36,43.36,0,0,1-10.37,1.18q-16,0-25.74-10.3t-9.71-27.51q0-17,9.41-27.51T2516,485.53q15.81,0,25,10.08t9.12,27.73Zm-17-13.53q-3.46-13.24-16.7-13.24a17.16,17.16,0,0,0-5.66.92,16.23,16.23,0,0,0-4.82,2.65,16.79,16.79,0,0,0-3.71,4.16,19.3,19.3,0,0,0-2.35,5.52Z"/><path class="cls-1" d="M2623.89,490.61v22q-5.66-6.91-10.15-9.49a19.77,19.77,0,0,0-10.37-2.65,20.44,20.44,0,0,0-15.52,6.55,23,23,0,0,0-6.18,16.4q0,10.08,6,16.55a20.09,20.09,0,0,0,15.37,6.47,21,21,0,0,0,10.52-2.57q4.41-2.5,10.37-9.71V556a43.47,43.47,0,0,1-20.15,5.22q-16.62,0-27.8-10.74t-11.18-26.85a36.32,36.32,0,0,1,11.33-27.07q11.33-11,27.8-11A41.55,41.55,0,0,1,2623.89,490.61Z"/><path class="cls-1" d="M2643.82,434.93h16.55v58.55q8.83-7.94,19.49-7.94,12.14,0,19.42,7.87,6.18,6.84,6.18,21.84v43.91h-16.55V516.79q0-8.61-3.05-12.47t-9.82-3.86q-8.68,0-12.21,5.37t-3.46,18.68v34.64h-16.55Z"/><path class="cls-1" d="M2726.42,487.52H2743v6.62q8.68-8.61,19.56-8.61,12.5,0,19.49,7.87,6,6.69,6,21.84v43.91H2771.5v-40q0-10.59-2.94-14.64t-10.44-4.12q-8.24,0-11.69,5.44T2743,524.59v34.57h-16.62Z"/><path class="cls-1" d="M2805.63,522.82a35.6,35.6,0,0,1,11.11-26.4,39.18,39.18,0,0,1,54.28.07,36.47,36.47,0,0,1,11,26.92q0,16.11-11.11,27t-27.43,10.81q-16.11,0-27-11T2805.63,522.82Zm16.92.29q0,10.74,5.74,17t15.52,6.33q9.71,0,15.52-6.25t5.81-16.7q0-10.44-5.81-16.7t-15.52-6.33q-9.49,0-15.37,6.33T2822.55,523.12Z"/><path class="cls-1" d="M2916.1,434.93V559.16h-16.55V434.93Z"/><path class="cls-1" d="M2933.68,522.82a35.6,35.6,0,0,1,11.11-26.4,39.18,39.18,0,0,1,54.28.07,36.47,36.47,0,0,1,11,26.92q0,16.11-11.11,27t-27.43,10.81q-16.11,0-27-11T2933.68,522.82Zm16.92.29q0,10.74,5.74,17t15.52,6.33q9.71,0,15.52-6.25t5.81-16.7q0-10.44-5.81-16.7t-15.52-6.33q-9.49,0-15.37,6.33T2950.6,523.12Z"/><path class="cls-1" d="M3096.89,557.47q0,5.07-.33,8.94a62.3,62.3,0,0,1-.92,6.8,30.31,30.31,0,0,1-6.91,13.9q-9.71,11.18-26.7,11.18-14.34,0-23.61-7.72-9.56-7.94-11-22H3044a18.81,18.81,0,0,0,3.16,8.16q5.15,6.69,15,6.69,18.17,0,18.17-22.29v-10q-9.86,10.08-22.73,10.08-14.64,0-24-10.59t-9.41-26.85q0-15.67,8.75-26.63,9.41-11.62,24.86-11.62a28.87,28.87,0,0,1,22.51,10.08v-8.09h16.55Zm-15.89-34q0-10.44-5.59-16.7a18.48,18.48,0,0,0-14.49-6.4q-9.42,0-14.86,7-4.93,6.25-4.93,16.18t4.93,16q5.37,6.84,14.86,6.84t15-6.91Q3081,533.27,3081,523.48Z"/><path class="cls-1" d="M3140.36,545.84l-32.22-58.33h19.2l21.92,41.19,20.45-41.19h18.68l-57.08,110.62h-18.9Z"/><path class="cls-1" d="M3266.43,445.59V543h33.39v16.11h-50.53V445.59Z"/><path class="cls-1" d="M3310.41,457.73a10.8,10.8,0,0,1,10.74-10.67,10.42,10.42,0,0,1,7.65,3.16,10.18,10.18,0,0,1,3.16,7.58,10.42,10.42,0,0,1-3.16,7.65,10.18,10.18,0,0,1-7.58,3.16,10.8,10.8,0,0,1-10.81-10.89Zm19,29.79v71.64h-16.55V487.52Z"/><path class="cls-1" d="M3350.42,487.52H3367v6.62a34.58,34.58,0,0,1,8.16-6.77,19.81,19.81,0,0,1,9-1.84q12.14,0,19.2,10.59a24.85,24.85,0,0,1,21.11-10.59q24.2,0,24.2,29.35v44.28h-16.62V519.37q0-10.3-2.5-14.56t-8.46-4.34q-6.84,0-10,5.15T3408,522.16v37h-16.62V519.59q0-19.12-11-19.12-7,0-10.19,5.22t-3.2,16.48v37h-16.55Z"/><path class="cls-1" d="M3467.07,457.73a10.8,10.8,0,0,1,10.74-10.67,10.42,10.42,0,0,1,7.65,3.16,10.18,10.18,0,0,1,3.16,7.58,10.42,10.42,0,0,1-3.16,7.65,10.18,10.18,0,0,1-7.58,3.16,10.8,10.8,0,0,1-10.81-10.89Zm19,29.79v71.64h-16.55V487.52Z"/><path class="cls-1" d="M3524.15,503v56.19H3507.6V503h-7.06V487.52h7.06V461.26h16.55v26.26H3537V503Z"/><path class="cls-1" d="M3614.84,527.24H3563.5q.66,8.83,5.74,14a17.49,17.49,0,0,0,13,5.15,16.93,16.93,0,0,0,10.22-2.94q4-2.94,9-10.89l14,7.8a55.67,55.67,0,0,1-6.84,9.45,36.38,36.38,0,0,1-7.72,6.47A31,31,0,0,1,3592,560a43.36,43.36,0,0,1-10.37,1.18q-16,0-25.74-10.3t-9.71-27.51q0-17,9.41-27.51t25.15-10.37q15.81,0,25,10.08t9.12,27.73Zm-17-13.53q-3.46-13.24-16.7-13.24a17.16,17.16,0,0,0-5.66.92,16.23,16.23,0,0,0-4.82,2.65,16.79,16.79,0,0,0-3.71,4.16,19.3,19.3,0,0,0-2.35,5.52Z"/><path class="cls-1" d="M3685.74,434.93h16.62V559.16h-16.62v-7.5q-9.78,9.56-22.14,9.56a31.52,31.52,0,0,1-24.42-10.74q-9.64-11-9.64-27.36,0-16,9.64-26.77a30.74,30.74,0,0,1,24.05-10.81q12.58,0,22.51,10.3Zm-39.28,88.19q0,10.3,5.52,16.77a18.06,18.06,0,0,0,14.27,6.55q9.19,0,14.86-6.33,5.66-6.55,5.66-16.62t-5.66-16.62a18.73,18.73,0,0,0-14.71-6.4,18.3,18.3,0,0,0-14.27,6.47A23.86,23.86,0,0,0,3646.47,523.12Z"/><path class="cls-1" d="M3856.82,451.7V472q-14.86-12.43-30.74-12.43a39.14,39.14,0,0,0-29.49,12.58q-12.06,12.5-12.06,30.6,0,17.87,12.06,30.16a39.84,39.84,0,0,0,29.57,12.28,36.27,36.27,0,0,0,15.37-2.94,44.3,44.3,0,0,0,7.32-4,86.45,86.45,0,0,0,8-6v20.67a61.89,61.89,0,0,1-30.89,8.31,57,57,0,0,1-41.56-17,56.33,56.33,0,0,1-17.14-41.34,58.31,58.31,0,0,1,14.34-38.69q17.65-20.81,45.67-20.81A58,58,0,0,1,3856.82,451.7Z"/><path class="cls-1" d="M3871.9,522.82a35.6,35.6,0,0,1,11.11-26.4,39.18,39.18,0,0,1,54.28.07,36.47,36.47,0,0,1,11,26.92q0,16.11-11.11,27t-27.43,10.81q-16.11,0-27-11T3871.9,522.82Zm16.92.29q0,10.74,5.74,17t15.52,6.33q9.71,0,15.52-6.25t5.81-16.7q0-10.44-5.81-16.7t-15.52-6.33q-9.49,0-15.37,6.33T3888.82,523.12Z"/><path class="cls-1" d="M3965.82,487.52h16.55v6.62a34.58,34.58,0,0,1,8.16-6.77,19.81,19.81,0,0,1,9-1.84q12.14,0,19.2,10.59a24.85,24.85,0,0,1,21.11-10.59q24.2,0,24.2,29.35v44.28h-16.62V519.37q0-10.3-2.5-14.56t-8.46-4.34q-6.84,0-10,5.15t-3.13,16.55v37h-16.62V519.59q0-19.12-11-19.12-7,0-10.19,5.22t-3.2,16.48v37h-16.55Z"/><path class="cls-1" d="M4103.36,598.14h-16.55V487.52h16.55v7.8q9.78-9.78,22.21-9.78a31,31,0,0,1,24.35,10.89q9.71,10.81,9.71,27.29,0,16.11-9.64,26.85a31,31,0,0,1-24.12,10.66q-12.58,0-22.51-10.08Zm39.35-74.36q0-10.3-5.59-16.77a18.07,18.07,0,0,0-14.27-6.55,18.91,18.91,0,0,0-14.78,6.33q-5.66,6.33-5.66,16.62,0,10.08,5.66,16.62a18.58,18.58,0,0,0,14.71,6.4A17.94,17.94,0,0,0,4137,540Q4142.71,533.49,4142.71,523.78Z"/><path class="cls-1" d="M4229.95,487.52h16.62v71.64h-16.62v-7.5q-10.22,9.56-22,9.56a31.68,31.68,0,0,1-24.57-10.74q-9.64-11-9.64-27.36,0-16.11,9.64-26.85a31.06,31.06,0,0,1,24.12-10.74q12.5,0,22.43,10.3Zm-39.28,35.6q0,10.3,5.52,16.77a18.06,18.06,0,0,0,14.27,6.55q9.19,0,14.86-6.33,5.66-6.55,5.66-16.62t-5.66-16.62a18.73,18.73,0,0,0-14.71-6.4,18.3,18.3,0,0,0-14.27,6.47A23.86,23.86,0,0,0,4190.67,523.12Z"/><path class="cls-1" d="M4267.46,487.52h16.62v6.62q8.68-8.61,19.56-8.61,12.5,0,19.49,7.87,6,6.69,6,21.84v43.91h-16.62v-40q0-10.59-2.94-14.64t-10.44-4.12q-8.24,0-11.69,5.44t-3.38,18.76v34.57h-16.62Z"/><path class="cls-1" d="M4370.21,545.84,4338,487.52h19.2l21.92,41.19,20.45-41.19h18.68l-57.08,110.62h-18.9Z"/><path class="cls-1" d="M2053.67,179.85l-13.15-8.7q-10.61,15.07-21.65,28,6.57,4.68,11.45,8.91Q2042,195.12,2053.67,179.85Z"/><path class="cls-1" d="M1927.55,179.85l-13.15-8.7q-10.61,15.07-21.65,28,6.57,4.68,11.45,8.91Q1915.89,195.12,1927.55,179.85Z"/><path class="cls-1" d="M1614.49,209.88l-14-9.23q-11.26,16-23,29.71,7,5,12.15,9.45Q1602.12,226.09,1614.49,209.88Z"/><path class="cls-1" d="M1614.49,284.44l-14-9.23q-11.26,16-23,29.71,7,5,12.15,9.45Q1602.12,300.65,1614.49,284.44Z"/><path class="cls-1" d="M2180.65,143.19l-16.4-10.84q-13.23,18.78-27,34.92,8.2,5.83,14.28,11.11Q2166.11,162.23,2180.65,143.19Z"/><path class="cls-1" d="M2270.27,143.19l-16.4-10.84q-13.23,18.78-27,34.92,8.2,5.83,14.28,11.11Q2255.73,162.23,2270.27,143.19Z"/><path class="cls-1" d="M2268.49,227.09l-16.4-10.84q-13.25,18.78-27,34.92,8.2,5.83,14.28,11.11Q2253.92,246.15,2268.49,227.09Z"/><path class="cls-1" d="M2181.78,226l-16.41-10.84q-13.22,18.78-27,34.93,8.2,5.81,14.29,11.11Q2167.22,245,2181.78,226Z"/><path class="cls-1" d="M2198.37,209.29"/><path class="cls-1" d="M2257.82,209.38l11.51-17.46h-55.94V132.66h-19.58v59.25H2137.5v17.46h46.71l9.85-.08-.25,19.43v33.55h19.58V232.13l.22.16a15.5,15.5,0,0,1,0-7.08l-.26.3V209.38Z"/><path class="cls-1" d="M2344.52,324.38c-.64-.47-14.29-22.62-14.4-22.43q-21.71-39.92-26.46-96a71.77,71.77,0,0,0,2.92-6.61s49.46.08,49.45.12c.79-.13,21.16-.1,21.16-.12h16.67v-18h-81a457.16,457.16,0,0,0,13-47.88l-21.16-3.17q-10.33,63.49-41,107.66a208.75,208.75,0,0,1,13.23,16.92,201.1,201.1,0,0,0,11.64-18.26q6.87,48.42,28.31,85.45c-.17.23,13.73,20.15,14.05,21a205,205,0,0,0,52.61,48.34q5.81-9.28,14.28-20.92A169.63,169.63,0,0,1,2344.52,324.38Z"/><path class="cls-1" d="M2230.9,345.61a125.11,125.11,0,0,0,30.43-45.51V282.92h-64.81q4.23-7.14,8.47-14.55l-19.05-6.09q-5.55,10.6-11.37,20.64h-40.21v17.46h30.15q-7.94,13-16.4,25.12,24.86,12.18,47.62,23.81-26.73,16.39-65.34,25.13,4.76,10.08,9,18.53,45.49-12.45,75.39-33.86,17.72,9.25,34.12,18.51l11.65-18.24Q2245.46,352.48,2230.9,345.61Zm-18.24-8.47q-19.85-9.25-38.63-17.73,6.09-9.27,12.17-19h55A113.25,113.25,0,0,1,2212.66,337.14Z"/><path class="cls-1" d="M2375.35,287.78l-16.17-11c-7.65,13.27-64.8,92.69-73,104.23,5.7,4.11,11.15,6.32,15.5,9.48C2310.37,379,2366.78,301.35,2375.35,287.78Z"/></g></g></svg>